<svg width="423.000000" height="184.000000" viewBox="0 0 423 184" fill="none" xmlns="http://www.w3.org/2000/svg" xmlns:xlink="http://www.w3.org/1999/xlink">
	<desc>
			Created with Pixso.
	</desc>
	<defs>
		<clipPath id="clip2_1">
			<rect id="画板 1" width="423.000000" height="184.000000" fill="white" fill-opacity="0"/>
		</clipPath>
	</defs>
	<rect width="423.000000" height="184.000000" fill="#EFEFEF"/>
	<rect id="画板 1" width="423.000000" height="184.000000" fill="#FFFFFF" fill-opacity="1.000000"/>
	<g clip-path="url(#clip2_1)">
		<path id="韩俊辉集团" d="M230.969 28.2812L230.125 28.2812L226.75 31.6562L226.75 35.0312L227.594 35.875L226.75 40.0938Q226.75 43.4688 212.406 52.75L209.031 50.2188L207.344 50.2188L205.656 51.9062L206.5 56.125L200.594 61.1875Q200.594 62.4531 199.961 63.0859Q199.328 63.7188 198.062 63.7188L198.062 65.4062L198.906 66.25L203.125 63.7188L203.969 64.5625L225.906 47.6875L226.75 47.6875L226.75 49.375L225.906 53.5938L226.75 54.4375L225.906 57.8125Q216.625 60.9062 215.781 63.7188L215.781 66.25L216.625 67.0938L217.469 67.0938L218.312 66.25L219.156 66.25L219.156 71.3125Q219.156 71.5453 219.237 71.7459Q219.738 73 223.375 73L218.312 83.125L218.312 87.3438L220 89.0312L223.375 89.0312L224.219 88.1875L224.219 91.5625L225.062 103.375L224.219 106.75L225.906 108.438L227.594 108.438L230.125 105.906L230.125 85.6562L235.188 73.8438L234.344 64.5625L234.344 51.9062L241.938 43.4688Q241.938 42.9495 241.838 42.4503Q241.288 39.7043 237.719 37.5625L232.656 40.0938L232.656 36.7188L234.344 31.6562L230.969 28.2812ZM125.5 29.9688L123.812 29.9688L123.812 34.1875L126.344 38.4062Q120.156 56.6875 117.906 57.8125Q117.906 60.9062 105.25 74.6875L105.25 76.375Q105.25 77.7812 110.312 79.75L115.375 76.375Q117.587 100.433 121.975 100.837Q122.05 100.844 122.125 100.844L122.969 100.844Q123.111 100.844 123.247 100.816Q125.81 100.29 126.344 89.875L125.5 87.3438L131.406 69.625L131.406 68.7812L128.875 68.7812Q127.469 68.7812 122.969 78.9062L118.75 74.6875L118.75 73L130.562 58.6562Q130.562 60.4087 131.371 60.9479Q131.731 61.1875 132.25 61.1875L133.094 61.1875Q140.688 60.3438 148.281 51.0625L149.969 51.0625L149.969 51.9062Q140.122 59.1619 134.095 68.805Q133.58 69.6282 133.094 70.4688L133.094 73.8438L134.781 75.5312Q139.281 70.4688 147.438 66.25L148.281 66.25Q136.469 80.3125 136.469 84.8125L136.469 86.5L137.312 87.3438L154.188 80.5938L155.875 80.5938L150.812 87.3438Q135.853 89.283 135.628 92.3137Q135.625 92.3598 135.625 92.4062L135.625 94.0938Q136.878 96.444 138.83 97.4849Q140.382 98.3125 142.375 98.3125Q146.031 98.3125 152.5 92.4062L158.406 92.4062Q152.5 99.4375 139 108.438L139 109.281Q148.844 106.75 166 92.4062Q165.916 92.0687 165.764 91.765Q164.397 89.0312 157.562 89.0312L157.562 87.3438Q162.625 82.2812 162.625 78.9062L162.625 77.2188L160.938 75.5312L160.094 75.5312L142.375 81.4375L141.531 81.4375Q141.531 79.1875 160.938 57.8125L160.938 56.9688L159.25 55.2812L156.719 55.2812L143.219 64.5625L142.375 64.5625Q142.656 62.3125 167.688 40.0938Q167.688 39.8963 167.637 39.713Q167.18 38.0686 162.625 37.5625L137.312 54.4375L136.469 54.4375L157.562 32.5L155.875 30.8125L153.344 30.8125L134.781 48.5312L135.625 46Q135.625 44.977 135.486 43.9733Q134.437 36.4232 125.5 29.9688ZM291.719 34.75L289.188 34.75Q287.5 35.0312 285.812 38.9688L285.812 39.8125L286.656 40.6562L285.812 41.5L283.281 39.8125L281.594 39.8125L274.844 41.5Q274.844 39.7476 274.035 39.2084Q273.675 38.9688 273.156 38.9688L270.625 38.9688L260.5 50.7812L260.5 51.625L263.875 55.8438Q269.219 55.8438 274.844 49.9375L274.844 50.7812L268.094 65.125Q268.094 68.2188 271.469 71.875L271.469 72.7188Q270.119 72.7188 269.039 73.2588Q267.419 74.0687 266.406 76.0938L262.188 75.25L261.344 75.25L260.5 76.0938Q260.5 76.613 260.74 76.9724Q261.279 77.7812 263.031 77.7812L263.031 78.625L260.5 79.4688L263.031 83.6875Q271.75 83.6875 286.656 76.9375L286.656 82L281.594 82L276.531 85.375Q278.606 91.1201 282.673 93.6053Q285.773 95.5 290.031 95.5L291.719 95.5Q291.972 95.5 292.2 95.4241Q294.25 94.7406 294.25 87.9062Q296.411 88.3384 297.465 89.656Q298.469 90.9108 298.469 92.9688L295.094 105.625Q295.094 107.377 295.903 107.917Q296.262 108.156 296.781 108.156L298.469 108.156Q304.094 102.25 306.062 95.5L306.062 94.6562L305.219 93.8125L306.062 92.9688L306.062 90.4375L300.156 83.6875Q297.111 83.6875 295.287 82.1951Q292.562 79.9658 292.562 74.4062L301.844 69.3438Q301.844 68.6715 301.77 68.0074Q301.412 64.782 299.312 61.75Q291.719 57.8125 291.719 55.8438Q291.719 53.3125 306.906 39.8125L305.219 38.125L298.469 38.125L293.406 42.3438L294.25 39.8125Q293.142 34.8279 291.762 34.7512Q291.74 34.75 291.719 34.75ZM58.8438 37.8438L58.2812 35.3125Q55.1875 35.3125 42.8125 66.25L43.6562 70.4688L45.0625 70.4688L49.8438 67.0938L49.8438 71.3125Q51.0813 71.7033 52.0323 72.4561Q55.1875 74.954 55.1875 81.4375Q36.625 95.5 36.625 102.25L36.625 103.938Q36.7675 104.579 37.1266 105.058Q38.185 106.469 41.125 106.469L45.9062 106.469L56.0312 102.25Q56.0312 98.4531 57.1703 98.0734Q57.2969 98.0312 57.4375 98.0312L60.5312 84.8125L60.5312 81.4375Q60.5312 80.83 60.2397 80.4412Q59.7213 79.75 58.2812 79.75L58.2812 78.0625L58.8438 77.2188L75.1562 66.25L76 66.25L76 67.0938L75.1562 67.9375L75.1562 72.1562L77.4062 76.375L77.4062 77.2188L76.8438 78.0625Q77.5908 82.5448 79.4402 83.0585Q79.6796 83.125 79.9375 83.125L79.9375 87.3438Q79.9375 106.064 82.6322 106.46Q82.6905 106.469 82.75 106.469Q82.7733 106.469 82.7965 106.467Q84.7321 106.329 85.8438 94.6562L86.6875 94.6562L87.5312 95.5L88.375 95.5Q92.3125 92.4062 93.7188 88.75Q93.7188 87.625 90.625 86.5L88.9375 88.1875L88.375 88.1875Q88.1776 88.1875 87.9943 88.1366Q86.3498 87.6798 85.8438 83.125L85.8438 78.9062L95.9688 74.6875L96.8125 74.6875L96.8125 75.5312L95.9688 79.75L97.6562 81.4375L98.2188 81.4375Q98.2679 81.4375 98.3167 81.4339Q100.506 81.2717 102.156 73.8438L98.2188 67.9375Q97.5501 67.9375 96.8874 68.0006Q91.1395 68.548 85.8438 73.8438L86.6875 69.625L85.2812 67.0938L85.2812 63.7188L90.625 55.2812Q88.7372 51.9776 86.2554 51.4458Q85.7793 51.3438 85.2812 51.3438L85.8438 47.125L85.8438 46.2812Q82.1845 39.6946 77.4673 38.8211Q76.746 38.6875 76 38.6875L75.1562 38.6875L69.8125 44.5938L69.8125 45.4375Q69.8125 45.4663 69.8136 45.495Q69.9024 47.7127 76.8438 49.6562Q76.8438 53.3125 78.25 55.2812L65.875 64.5625L65.0312 64.5625Q67.2762 62.3176 68.2412 59.6156Q68.9688 57.5783 68.9688 55.2812L68.9688 54.4375L68.125 53.5938Q63.1706 53.5938 59.2829 55.6302Q56.5497 57.0618 54.3438 59.5L54.3438 60.3438L55.1875 61.1875L65.0312 56.9688Q65.0312 60.3438 59.6875 66.25L55.1875 63.7188L51.25 64.5625L51.25 63.7188L50.4062 62.875L48.1562 64.5625L49.8438 56.9688Q64.4688 48.8125 68.125 42.0625L68.125 41.2188L66.7188 41.2188L53.5 50.5L52.9375 50.5L58.8438 37.8438ZM371.336 105.062Q376.101 104.912 378.906 42.625L376.375 39.25Q372.629 39.25 368.996 39.8911Q355.445 42.2824 343.469 53.5938L343.469 55.2812L350.219 55.2812L374.688 40.9375L376.375 42.625Q371.312 74.4062 371.312 94.0938L371.312 99.1562L370.469 100L366.25 98.3125L365.406 98.3125L365.406 100L371.312 105.062Q371.324 105.062 371.336 105.062ZM233.5 48.5312L233.5 43.4688L237.719 41.7812L238.562 41.7812Q236.312 47.4062 233.5 48.5312ZM202.281 43.4688L199.75 43.4688L199.75 45.1562L192.156 65.4062L191.312 65.4062L190.469 64.5625L189.625 64.5625L186.25 67.9375L186.25 69.625L188.781 72.1562L189.625 72.1562L190.469 71.3125Q190.469 67.6756 191.723 67.174Q191.923 67.0938 192.156 67.0938Q192.156 74.8346 194.287 75.4737Q194.479 75.5312 194.688 75.5312L201.438 73.8438L201.438 74.6875L186.25 91.5625L186.25 93.25L187.938 94.9375Q190.188 94.6562 198.062 85.6562Q199.469 85.6562 203.125 92.4062Q207.914 91.6081 208.173 90.055Q208.188 89.9662 208.188 89.875L208.188 89.0312L200.594 83.9688Q207.344 75.5312 207.344 72.1562L207.344 71.3125L204.812 68.7812L203.125 68.7812L196.375 70.4688L194.688 70.4688Q194.688 63.7188 203.969 47.6875L203.969 45.1562L202.281 43.4688ZM282.438 50.7812L284.125 44.875L284.969 44.875L284.969 45.7188Q284.171 50.5076 282.617 50.7665Q282.529 50.7812 282.438 50.7812ZM365.406 56.125L362.031 50.2188L352.75 60.3438L352.75 62.0312L355.281 62.0312L355.281 63.7188L349.375 72.1562L349.375 75.5312L351.062 78.0625Q353.312 78.0625 359.5 73L361.188 80.5938L357.812 83.9688Q357.812 82.2398 356.962 81.2194Q355.738 79.75 352.75 79.75Q351.344 79.75 349.375 84.8125Q349.821 87.4885 351.151 88.0427Q351.499 88.1875 351.906 88.1875L352.75 88.1875L351.062 94.0938L353.594 96.625L356.125 96.625L361.188 94.9375L361.188 94.0938L360.344 93.25L354.438 94.0938L353.594 94.0938L354.438 89.0312L363.719 83.9688Q363.719 78.9062 360.344 71.3125Q365.541 67.6 366.165 63.2341Q366.25 62.6387 366.25 62.0312L366.25 60.3438L364.562 57.8125Q362.875 57.8125 361.188 66.25L360.344 66.25L360.344 64.5625Q360.344 63.0438 360.799 61.6769Q361.862 58.4875 365.406 56.125ZM277.375 68.5Q277.375 64.2812 284.969 58.375L286.656 60.0625L286.656 62.5938Q284.969 65.9688 278.219 68.5L277.375 68.5ZM225.062 68.7812L224.219 68.7812Q225.029 63.1113 226.616 62.8844Q226.682 62.875 226.75 62.875L226.75 67.0938L225.062 68.7812ZM54.3438 69.625L52.0938 67.9375L53.5 66.25L56.0312 66.25L55.1875 69.625L54.3438 69.625ZM354.438 72.1562L356.969 66.25L358.656 67.9375L356.125 72.1562L354.438 72.1562ZM59.6875 70.4688L58.8438 70.4688L61.375 67.9375L61.9375 67.9375L59.6875 70.4688ZM333.344 98.3125L329.969 72.1562L328.281 73.8438L328.281 95.7812Q328.281 99.1562 329.901 100.371Q330.306 100.675 330.812 100.844L332.5 100.844L333.344 98.3125ZM211.562 76.375L211.562 78.0625L213.25 79.75L213.25 76.375L211.562 76.375ZM352.75 84.8125L352.75 83.125L354.438 81.4375L354.438 84.8125L352.75 84.8125ZM283.281 88.75L283.281 87.0625L287.5 86.2188L287.5 88.75L286.656 89.5938L283.281 88.75ZM41.9688 101.406L41.9688 99.7188Q46.1839 93.6302 51.9588 90.0764Q53.1198 89.362 54.3438 88.75Q52.9666 99.0787 48.2178 100.978Q47.1476 101.406 45.9062 101.406L41.9688 101.406Z" fill="#000000" fill-opacity="1.000000" fill-rule="evenodd"/>
		<path id="————    登录系统    ————" d="M249.059 160.22Q249.259 159.36 249.342 157.778L248.102 157.339Q248.082 157.998 248.038 158.418Q247.999 158.838 247.902 159.36Q247.799 159.819 247.579 159.971Q247.36 160.122 246.818 160.161Q246.481 160.181 246.159 160.161Q245.602 160.122 245.441 159.961Q245.28 159.8 245.28 159.199L245.28 153.101Q245.602 153.101 246.119 153.062L246.92 153.042Q247.418 153.862 247.721 154.482L248.781 153.398Q248.302 152.48 247.272 151.03Q246.242 149.58 245.499 148.779L244.42 149.521Q245.06 150.22 246.1 151.738Q244.498 151.821 242.819 151.89Q241.139 151.958 240.162 152.002Q240.719 151.382 241.578 150.151Q242.438 148.921 243.18 147.72L248.839 147.72L248.839 146.338L244.259 146.338Q244.098 145.762 243.82 144.961Q243.541 144.16 243.341 143.682L241.901 143.94Q241.959 144.07 242.014 144.2Q242.454 145.236 242.741 146.338L238.038 146.338L238.038 147.72L241.598 147.72Q239.62 150.762 238.619 151.782Q238.4 152.08 237.741 152.261L238.121 153.56Q238.439 153.501 238.839 153.452Q239.24 153.398 239.518 153.398L240.358 153.34Q240.358 154.199 240.338 154.419Q240.28 156.299 239.957 157.383Q239.816 157.864 239.578 158.292Q239.283 158.823 238.839 159.272Q238.038 160.078 236.378 161.04L237.282 162.261Q239 161.201 239.938 160.161Q240.557 159.478 240.95 158.684Q241.156 158.268 241.3 157.822Q241.72 156.519 241.798 154.561Q241.818 154.238 241.818 153.262Q242.501 153.242 243.878 153.159L243.878 159.458Q243.878 160.342 244.147 160.791Q244.266 160.988 244.435 161.124Q244.651 161.3 244.948 161.377Q245.48 161.519 246.442 161.519Q246.798 161.519 246.979 161.499Q247.999 161.44 248.458 161.138Q248.581 161.059 248.681 160.958Q248.958 160.676 249.059 160.22ZM231.642 149.902L231.94 151.318Q232.34 151.201 232.799 151.162Q234.298 151.06 235.221 151.021Q234.098 152.9 233.019 154.458Q232.858 154.702 232.589 154.883Q232.393 155.011 232.179 155.09Q232.1 155.119 232.018 155.142L232.36 156.519Q233.019 156.338 233.502 156.299L235.319 156.021Q236.598 155.82 237.199 155.732Q237.799 155.64 237.921 155.62L237.902 154.199L234.601 154.658Q235.402 153.56 236.481 151.699Q237.56 149.839 238.302 148.281L237.062 147.642Q236.701 148.442 236.041 149.619L233.639 149.741Q234.201 148.96 235.04 147.373Q235.88 145.781 236.422 144.458L235.118 143.882Q234.562 145.342 233.707 147.012Q232.858 148.682 232.321 149.399Q232.16 149.619 232.018 149.722Q231.881 149.819 231.642 149.902ZM190.019 153.618L190.698 152.28Q187.9 151.162 186.259 149.878Q187.079 149.458 188.017 148.862Q188.959 148.262 189.54 147.798L188.72 146.699Q188.139 147.202 187.099 147.871Q186.059 148.54 185.219 148.96Q184.482 148.179 183.979 147.441Q184.858 147.002 185.917 146.323Q186.982 145.64 187.602 145.142L186.801 144.082Q186.22 144.58 185.209 145.239Q184.199 145.898 183.359 146.338Q182.841 145.239 182.48 144.102L181.201 144.341Q181.718 146.04 182.455 147.363Q183.055 148.429 183.837 149.338Q184.022 149.554 184.218 149.761L178.481 149.761Q179.623 148.643 180.453 147.329Q180.769 146.828 181.039 146.299L181.039 145L173.52 145L173.52 146.26L179.521 146.26Q178.701 147.681 177.421 148.94Q176.899 148.442 176.01 147.681Q175.121 146.919 174.721 146.621L173.862 147.539Q174.282 147.842 175.068 148.564Q175.859 149.282 176.381 149.839Q174.76 151.162 172.158 152.48L172.802 153.721Q176.098 152.002 178.198 150.039L178.198 150.981L184.579 150.981L184.579 150.122Q186.498 151.982 190.019 153.618ZM221.82 155.479L226 155.361L226.981 155.342Q227.621 156.099 228.021 156.719L229.062 155.601Q228.422 154.722 227.128 153.33Q225.839 151.938 224.98 151.221L223.9 152.139Q224.701 152.842 225.702 153.901L224.062 153.96Q220.082 154.141 217.958 154.199Q219.999 153.12 222.221 151.553Q224.442 149.98 226.239 148.301L225.282 147.178Q223.661 148.721 222.182 149.839Q217.919 150.02 217.06 150.02Q218.642 149.038 220.502 147.28L220.082 146.782Q225.521 146.421 228.422 146.118L228.178 144.658Q225.502 145 220.878 145.303Q216.259 145.601 213.021 145.679L213.28 147.139Q214.179 147.119 217.802 146.899L219.018 146.841Q218.62 147.198 218.21 147.539Q217.633 148.021 217.03 148.472Q216 149.238 215.121 149.741Q214.862 149.878 214.54 149.971Q214.218 150.059 213.578 150.142L213.861 151.46Q214.862 151.362 215.302 151.362Q216.762 151.279 220.321 151.201Q217.299 153.198 214.74 154.102Q214.198 154.282 213.261 154.399L213.559 155.918Q214.74 155.781 215.399 155.762Q216.918 155.659 220.321 155.542L220.321 159.121Q220.321 159.561 220.229 159.761Q220.219 159.782 220.208 159.801Q220.111 159.97 219.857 160.049Q219.579 160.142 218.939 160.2L217.538 160.322L218.041 161.802L219.179 161.699Q220.36 161.602 220.888 161.421Q221.312 161.277 221.525 160.981Q221.579 160.906 221.62 160.82Q221.82 160.4 221.82 159.541L221.82 155.479ZM209.279 160.879L210.06 159.561Q206.72 158.359 204.738 156.719Q205.661 156.138 206.75 155.322Q207.839 154.502 208.478 153.901L207.521 152.7Q206.862 153.359 205.719 154.243Q204.582 155.122 203.659 155.698Q202.58 154.502 201.799 152.861L201.799 152.52L209.801 152.52L209.801 151.221L207.121 151.221L207.121 144.819L194.22 144.819L194.22 146.138L205.622 146.138L205.622 148.062L194.738 148.062L194.738 149.341L205.622 149.341L205.622 151.221L192.638 151.221L192.638 152.52L200.339 152.52L200.339 158.901Q200.339 159.502 200.246 159.751Q200.224 159.812 200.189 159.864Q200.081 160.024 199.845 160.098Q199.538 160.2 198.8 160.259L197.341 160.342L197.819 161.802L199.098 161.699Q200.26 161.602 200.817 161.401Q201.3 161.229 201.523 160.888Q201.559 160.832 201.589 160.771Q201.799 160.342 201.799 159.482L201.799 155.459Q202.612 156.699 203.675 157.664Q204.156 158.101 204.689 158.481Q206.398 159.702 209.279 160.879ZM195.607 155.039Q196.559 155.82 197.082 156.382L197.961 155.122Q197.419 154.619 196.418 153.853Q195.422 153.081 194.782 152.661L193.942 153.74Q194.66 154.258 195.607 155.039ZM187.06 152.681L175.761 152.681L175.761 157.041L187.06 157.041L187.06 152.681ZM108.66 153.179L97.7614 153.179L97.7614 154.541L108.66 154.541L108.66 153.179ZM122.34 153.179L111.441 153.179L111.441 154.541L122.34 154.541L122.34 153.179ZM136.02 153.179L125.121 153.179L125.121 154.541L136.02 154.541L136.02 153.179ZM149.7 153.179L138.801 153.179L138.801 154.541L149.7 154.541L149.7 153.179ZM283.22 153.179L272.321 153.179L272.321 154.541L283.22 154.541L283.22 153.179ZM296.9 153.179L286.001 153.179L286.001 154.541L296.9 154.541L296.9 153.179ZM310.58 153.179L299.681 153.179L299.681 154.541L310.58 154.541L310.58 153.179ZM324.26 153.179L313.361 153.179L313.361 154.541L324.26 154.541L324.26 153.179ZM185.659 155.82L177.138 155.82L177.138 153.882L185.659 153.882L185.659 155.82ZM200.221 156.519L199.88 155.918L199.518 155.278Q198.18 156.221 195.91 157.544Q193.639 158.862 192.301 159.458L193.122 160.698Q194.44 160.059 196.691 158.74Q198.942 157.422 200.221 156.519ZM215.546 159.482Q217.099 158.462 218.178 157.539L217.299 156.362Q216.322 157.28 214.75 158.311Q213.178 159.341 211.742 160.098L212.48 161.362Q213.998 160.498 215.546 159.482ZM226.986 158.081Q225.238 157.041 224.042 156.421L223.3 157.622Q224.481 158.198 226.342 159.37Q228.202 160.542 229.12 161.318L229.818 159.922Q228.739 159.121 226.986 158.081ZM183.998 160.078Q184.902 158.901 185.58 157.778L184.438 157.241Q184.14 157.778 183.53 158.662Q182.919 159.541 182.48 160.078L179.101 160.078L179.902 159.541Q179.501 158.921 179.018 158.281Q178.539 157.642 178.198 157.28L177.138 157.9Q177.68 158.481 178.681 160.078L173.461 160.078L173.461 161.362L189.34 161.362L189.34 160.078L183.998 160.078ZM238.302 159.16L238.219 158.579L238.121 157.7Q236.92 157.998 234.738 158.442Q232.56 158.882 231.261 159.082L231.52 160.479Q233.038 160.22 235.099 159.819Q237.16 159.419 238.302 159.16Z" fill="#000000" fill-opacity="1.000000" fill-rule="evenodd"/>
		<path id="Han Junhui Group" d="M300.371 118.264C300.371 118.888 300.383 119.799 300.394 120.461L301.355 120.616L301.355 121L298.426 121L298.426 120.616L299.445 120.473C299.457 119.799 299.469 118.888 299.469 118.264L299.469 117.065C299.469 115.817 299.097 115.407 298.317 115.407C297.717 115.407 297.107 115.624 296.325 116.368L296.325 118.264C296.325 118.876 296.337 119.799 296.349 120.473L297.298 120.616L297.298 121L294.359 121L294.359 120.616L295.391 120.461C295.402 119.799 295.414 118.876 295.414 118.264L295.414 112.287L294.321 112.193L294.321 111.821L296.158 111.317L296.337 111.423L296.29 113.271L296.29 115.923C296.987 115.155 297.898 114.663 298.725 114.663C299.817 114.663 300.371 115.311 300.371 117.016L300.371 118.264ZM312.13 112.313C312.13 112.744 311.793 113.043 311.363 113.043C310.941 113.043 310.607 112.744 310.607 112.313C310.607 111.868 310.941 111.581 311.363 111.581C311.793 111.581 312.13 111.868 312.13 112.313ZM321.801 116.837L325.115 116.837L325.115 117.268L324.286 117.353C324.262 118.144 324.25 118.949 324.25 119.825L324.25 120.411C323.339 120.903 322.498 121.193 321.429 121.193C318.825 121.193 317.049 119.283 317.049 116.62C317.049 113.969 318.874 112.047 321.467 112.047C322.569 112.047 323.351 112.275 324.083 112.721L324.13 114.604L323.459 114.604L323.193 113.02C322.689 112.721 322.173 112.589 321.573 112.589C319.607 112.589 318.227 114.089 318.227 116.632C318.227 119.14 319.522 120.651 321.611 120.651C322.211 120.651 322.701 120.531 323.243 120.317L323.243 119.811C323.243 119.02 323.231 118.193 323.207 117.376L321.801 117.268L321.801 116.837ZM255.983 112.252L255.983 112.671L254.721 112.803C254.697 113.945 254.697 115.108 254.697 116.295L254.697 116.957C254.697 118.108 254.697 119.283 254.721 120.435L255.983 120.569L255.983 121L252.406 121L252.406 120.569L253.654 120.449C253.678 119.321 253.678 118.144 253.678 116.74L249.189 116.74C249.189 118.132 249.189 119.307 249.227 120.435L250.475 120.569L250.475 121L246.91 121L246.91 120.569L248.158 120.435C248.193 119.295 248.193 118.132 248.193 116.957L248.193 116.295C248.193 115.132 248.193 113.957 248.158 112.803L246.91 112.671L246.91 112.252L250.475 112.252L250.475 112.671L249.227 112.803C249.189 113.919 249.189 115.073 249.189 116.236L253.678 116.236C253.678 115.085 253.678 113.931 253.654 112.803L252.406 112.671L252.406 112.252L255.983 112.252ZM274.569 112.252L278.266 112.252L278.266 112.671L277.018 112.803C276.995 113.945 276.995 115.108 276.995 116.307L276.995 118.384C276.995 119.717 276.957 120.317 276.863 120.903C276.635 122.333 275.554 123.077 274.426 123.077C273.957 123.077 273.514 122.945 273.406 122.523C273.465 122.104 273.755 121.961 274.115 121.961C274.426 121.961 274.678 122.055 275.026 122.321L275.337 122.547C275.77 122.213 276.046 121.659 276.046 120.651C276.046 119.98 276.011 118.864 275.949 112.817L274.569 112.671L274.569 112.252ZM262.09 120.581C262.307 120.581 262.45 120.484 262.629 120.291L262.834 120.543C262.547 120.977 262.21 121.144 261.791 121.144C261.179 121.144 260.795 120.736 260.687 120.077C259.954 120.821 259.474 121.167 258.695 121.167C257.734 121.167 256.966 120.616 256.966 119.585C256.966 118.779 257.435 118.193 259.067 117.604C259.535 117.461 260.11 117.291 260.663 117.171L260.663 116.787C260.663 115.469 260.265 115.144 259.354 115.144C259.102 115.144 258.826 115.167 258.513 115.275L258.249 116.163C258.153 116.512 257.974 116.693 257.663 116.693C257.362 116.693 257.159 116.523 257.133 116.236C257.385 115.252 258.322 114.663 259.594 114.663C260.927 114.663 261.574 115.264 261.574 116.825L261.574 119.667C261.574 120.364 261.765 120.581 262.09 120.581ZM269.422 118.264C269.422 118.888 269.434 119.799 269.457 120.461L270.406 120.616L270.406 121L267.465 121L267.465 120.616L268.487 120.473C268.499 119.811 268.511 118.888 268.511 118.264L268.511 117.065C268.511 115.817 268.15 115.407 267.383 115.407C266.794 115.407 266.182 115.659 265.414 116.368L265.414 118.264C265.414 118.876 265.426 119.799 265.438 120.461L266.387 120.616L266.387 121L263.457 121L263.457 120.616L264.465 120.473C264.491 119.799 264.503 118.876 264.503 118.264L264.503 117.604C264.503 116.849 264.477 116.345 264.453 115.779L263.387 115.697L263.387 115.311L265.115 114.675L265.282 114.795L265.379 115.899C266.073 115.132 266.973 114.663 267.778 114.663C268.871 114.663 269.422 115.325 269.422 117.016L269.422 118.264ZM292.522 118.264C292.522 118.888 292.534 119.799 292.557 120.461L293.506 120.616L293.506 121L290.565 121L290.565 120.616L291.587 120.473C291.599 119.811 291.611 118.888 291.611 118.264L291.611 117.065C291.611 115.817 291.25 115.407 290.483 115.407C289.894 115.407 289.282 115.659 288.514 116.368L288.514 118.264C288.514 118.876 288.526 119.799 288.538 120.461L289.487 120.616L289.487 121L286.557 121L286.557 120.616L287.565 120.473C287.591 119.799 287.603 118.876 287.603 118.264L287.603 117.604C287.603 116.849 287.577 116.345 287.553 115.779L286.487 115.697L286.487 115.311L288.215 114.675L288.382 114.795L288.479 115.899C289.173 115.132 290.073 114.663 290.878 114.663C291.971 114.663 292.522 115.325 292.522 117.016L292.522 118.264ZM327.491 114.675L327.658 114.795L327.778 116.368C328.209 115.311 328.977 114.663 329.735 114.663C330.119 114.663 330.515 114.833 330.647 115.097C330.647 115.612 330.441 115.911 329.973 115.911C329.674 115.911 329.445 115.768 329.205 115.565L329.038 115.419C328.473 115.791 328.089 116.345 327.79 117.171L327.79 118.264C327.79 118.876 327.802 119.787 327.814 120.461L328.918 120.616L328.918 121L325.859 121L325.859 120.616L326.841 120.473C326.867 119.799 326.879 118.876 326.879 118.264L326.879 117.604C326.879 116.837 326.853 116.345 326.829 115.779L325.763 115.697L325.763 115.311L327.491 114.675ZM337.078 117.941C337.078 120.112 335.613 121.167 334.139 121.167C332.651 121.167 331.186 120.112 331.186 117.941C331.186 115.756 332.651 114.663 334.139 114.663C335.59 114.663 337.078 115.756 337.078 117.941ZM347.363 114.675L347.53 114.795L347.603 115.659C348.227 114.965 348.922 114.663 349.631 114.663C351.034 114.663 352.103 115.899 352.103 117.868C352.103 119.896 350.987 121.167 349.449 121.167C348.851 121.167 348.201 120.977 347.615 120.268L347.615 121.384C347.615 122.081 347.627 122.872 347.65 123.604L348.886 123.76L348.886 124.144L345.634 124.144L345.634 123.76L346.727 123.604C346.739 122.884 346.751 122.116 346.751 121.407L346.751 117.616C346.751 116.849 346.739 116.345 346.701 115.779L345.623 115.697L345.623 115.311L347.363 114.675ZM311.843 118.264C311.843 118.876 311.855 119.799 311.867 120.461L312.813 120.616L312.813 121L309.886 121L309.886 120.616L310.917 120.461C310.929 119.799 310.941 118.876 310.941 118.264L310.941 117.593C310.941 116.849 310.941 116.368 310.917 115.768L309.813 115.697L309.813 115.299L311.697 114.675L311.878 114.795L311.843 116.5L311.843 118.264ZM284.59 116.705L284.59 120.473L285.513 120.616L285.513 121L283.811 121.108L283.714 119.907C283.043 120.736 282.214 121.167 281.373 121.167C280.295 121.167 279.657 120.555 279.671 118.791L279.706 115.457L278.71 115.287L278.71 114.903L280.509 114.748L280.629 114.88L280.571 116.705L280.571 118.721C280.571 119.969 280.954 120.399 281.734 120.399C282.419 120.399 283.079 120.077 283.691 119.441L283.714 115.457L282.73 115.287L282.73 114.903L284.505 114.748L284.637 114.88L284.59 116.705ZM307.966 116.705L307.966 120.473L308.889 120.616L308.889 121L307.187 121.108L307.09 119.907C306.419 120.736 305.59 121.167 304.749 121.167C303.671 121.167 303.033 120.555 303.047 118.791L303.082 115.457L302.086 115.287L302.086 114.903L303.885 114.748L304.005 114.88L303.947 116.705L303.947 118.721C303.947 119.969 304.331 120.399 305.11 120.399C305.795 120.399 306.455 120.077 307.067 119.441L307.09 115.457L306.106 115.287L306.106 114.903L307.881 114.748L308.013 114.88L307.966 116.705ZM343.858 116.705L343.858 120.473L344.781 120.616L344.781 121L343.079 121.108L342.982 119.907C342.311 120.736 341.482 121.167 340.641 121.167C339.563 121.167 338.925 120.555 338.939 118.791L338.974 115.457L337.978 115.287L337.978 114.903L339.777 114.748L339.897 114.88L339.839 116.705L339.839 118.721C339.839 119.969 340.222 120.399 341.002 120.399C341.687 120.399 342.346 120.077 342.959 119.441L342.982 115.457L341.998 115.287L341.998 114.903L343.773 114.748L343.905 114.88L343.858 116.705ZM332.206 117.941C332.206 119.74 332.927 120.689 334.139 120.689C335.338 120.689 336.07 119.74 336.07 117.941C336.07 116.151 335.338 115.144 334.139 115.144C332.927 115.144 332.206 116.151 332.206 117.941ZM349.355 115.264C348.922 115.264 348.383 115.396 347.662 116.043L347.662 119.837C348.189 120.364 348.705 120.555 349.247 120.555C350.278 120.555 351.142 119.787 351.142 117.965C351.142 116.201 350.398 115.264 349.355 115.264ZM259.043 120.461C259.547 120.461 259.893 120.244 260.663 119.632L260.663 117.555C260.171 117.689 259.641 117.856 259.319 117.988C258.153 118.431 257.939 118.935 257.939 119.415C257.939 120.136 258.393 120.461 259.043 120.461Z" fill="#000000" fill-opacity="1.000000" fill-rule="evenodd"/>
	</g>
</svg>
